<?xml version="1.0" encoding="UTF-8" standalone="no"?>
<!DOCTYPE svg PUBLIC "-//W3C//DTD SVG 1.1//EN" "http://www.w3.org/Graphics/SVG/1.1/DTD/svg11.dtd">
<svg xmlns="http://www.w3.org/2000/svg">
<metadata>
This is a custom SVG webfont generated by Font Squirrel.
Copyright   : Copyright  1988 1990 1993 2003 Linotype Library GmbH wwwlinotypecom All rights reserved Copyright  1988 1990 1993 Adobe Systems Incorporated All Rights Reserved
Designer    : Linotype Library GmbH
Foundry URL : httpwwwLinotypecom
</metadata>
<defs>
<font id="webfontmHjOmX3b" horiz-adv-x="1024">
<font-face units-per-em="2048" ascent="1462" descent="-586"/>
<missing-glyph horiz-adv-x="569"/>
<glyph unicode=" " horiz-adv-x="569"/>
<glyph unicode="	" horiz-adv-x="569"/>
<glyph unicode=" " horiz-adv-x="569"/>
<glyph unicode="!" horiz-adv-x="378" d="M211 373h-41v1089h41v-1089zM211 0h-41v201h41v-201z"/>
<glyph unicode="&quot;" horiz-adv-x="569" d="M420 1462v-461h-41v461h41zM190 1462v-461h-40v461h40z"/>
<glyph unicode="#" horiz-adv-x="1138" d="M428 872l-49 -362h350l49 362h-350zM461 1393h41l-64 -480h350l64 480h41l-64 -480h238v-41h-248l-49 -362h240v-41h-248l-64 -469h-41l64 469h-352l-64 -469h-41l64 469h-256v41h266l49 362h-258v41h268z"/>
<glyph unicode="$" horiz-adv-x="1138" d="M584 727v-721q195 0 335 89t140 265q0 76 -25.5 133.5t-67.5 93.5t-99.5 61.5t-117 41t-124.5 29.5q-29 6 -41 8zM12 485h41q0 -461 490 -477v729q-227 53 -303 90q-184 90 -185 293q0 102 43 178t116 118t155 61.5t174 19.5v88h41v-90q465 -10 487 -442h-41 q-14 391 -446 401v-684l16 -4q18 -4 78.5 -19.5t79 -21.5l69 -21.5t68.5 -24.5l56 -29q38 -19 53 -37l38 -45q25 -28 33 -57.5t16.5 -68.5t8.5 -84q0 -193 -152.5 -293t-363.5 -100v-180h-41v182q-246 8 -390.5 136t-140.5 382zM543 780v676q-113 0 -208 -28.5t-167 -107.5 t-72 -200q0 -70 27 -124t61.5 -85.5t104 -59.5t117 -40.5t137.5 -30.5z"/>
<glyph unicode="%" horiz-adv-x="1402" d="M180 -70l975 1532h47l-975 -1532h-47zM731 322q0 158 83 256t228 98q152 0 235 -97.5t83 -254.5q0 -147 -85 -248t-233 -101q-152 0 -231.5 101t-79.5 246zM84 1063q0 -131 69.5 -218t200.5 -87t204 88t73 217q0 145 -69.5 229t-207.5 84q-135 0 -202.5 -85t-67.5 -228z M43 1063q0 158 83 256t228 98q152 0 235 -97t83 -255q0 -147 -85 -247.5t-233 -100.5q-152 0 -231.5 100.5t-79.5 245.5zM772 322q0 -131 69.5 -218.5t201 -87.5t204 88.5t72.5 217.5q0 145 -69.5 229t-207.5 84q-135 0 -202.5 -85t-67.5 -228z"/>
<glyph unicode="&amp;" horiz-adv-x="1175" d="M956 272l215 -272h-53l-182 231q-145 -266 -428 -266q-164 0 -291 100.5t-127 262.5q0 70 26.5 133t58.5 105t97.5 95.5t100.5 75.5l110 70q-16 25 -65 86t-76 99t-51.5 94.5t-24.5 103.5q0 131 89 201.5t210 70.5q127 0 213 -73.5t86 -198.5q0 -55 -17.5 -103.5 t-60.5 -93.5t-69.5 -68.5t-92.5 -70.5l-81 -57l385 -488q57 127 49 258h41q1 -152 -62 -295zM909 270l-401 504q-4 -2 -54.5 -33.5t-60.5 -39.5l-54 -37q-44 -31 -57.5 -45.5t-46 -45t-45.5 -53.5l-29 -55q-17 -33 -23.5 -66.5t-6.5 -70.5q0 -150 112.5 -236t264.5 -86 q272 0 401 264zM307 1194q0 -63 43 -134t168 -233q10 6 52 36l61 43q18 13 55 43t55 53l41 55q23 31 32 64.5t9 68.5q0 102 -75.5 166.5t-180.5 64.5q-111 0 -185.5 -62.5t-74.5 -164.5z"/>
<glyph unicode="'" horiz-adv-x="342" d="M152 1001v461h41v-461h-41z"/>
<glyph unicode="(" horiz-adv-x="454" d="M377 1497h41q-238 -434 -238 -919q0 -502 240 -940h-41q-123 244 -181.5 464t-58.5 476q0 485 238 919z"/>
<glyph unicode=")" horiz-adv-x="454" d="M78 -362h-41q238 434 237 919q0 502 -239 940h41q123 -244 181 -464t58 -476q1 -485 -237 -919z"/>
<glyph unicode="*" horiz-adv-x="720" d="M336 1462h41v-286l270 88l8 -39l-266 -88l170 -224l-33 -24l-170 221l-172 -213l-32 27l180 213l-266 88l12 39l258 -88v286z"/>
<glyph unicode="+" horiz-adv-x="1228" d="M594 539v497h41v-497h495v-41h-495v-498h-41v498h-496v41h496z"/>
<glyph unicode="," horiz-adv-x="569" d="M264 201h41v-201q0 -180 -90 -244v41q49 49 49 203v201z"/>
<glyph unicode="-" horiz-adv-x="681" d="M162 528v41h358v-41h-358z"/>
<glyph unicode="." horiz-adv-x="569" d="M305 201v-201h-41v201h41z"/>
<glyph unicode="/" horiz-adv-x="681" d="M27 -35h-41l669 1532h41z"/>
<glyph unicode="0" horiz-adv-x="1138" d="M1096 696.5q0 -139.5 -27 -261.5t-85 -228.5t-164.5 -169t-250 -62.5t-250 62.5t-165 169t-85 228.5t-26.5 261.5t26.5 261t85 228t165 169t250 62.5t250 -62.5t164.5 -169t85 -228t27 -261zM1055 696q0 127 -23.5 240t-76 216t-151.5 163.5t-234.5 60.5t-234.5 -60.5 t-151.5 -163.5t-76 -216t-23.5 -240t23.5 -239.5t76 -216t151.5 -164t234.5 -60.5t234.5 60.5t151.5 164t76 216t23.5 239.5z"/>
<glyph unicode="1" horiz-adv-x="1138" d="M610 0v1339h-4q-61 -84 -161.5 -149.5t-208.5 -95.5v41q119 39 198.5 96t171.5 162h45v-1393h-41z"/>
<glyph unicode="2" horiz-adv-x="1138" d="M154 41h897v-41h-938q0 39 6 74t24 69l34 63q15 28 49 61l54 54q19 19 65 54l66 49l71 52q52 38 69 48q100 70 158.5 116t128 113.5t102.5 139.5t33 149q0 160 -107.5 247t-279.5 87q-209 0 -308.5 -118.5t-99.5 -321.5h-41q2 231 116 356t333 125q186 0 307 -97 t121 -278q0 -94 -46 -181t-120 -156.5t-163 -136.5l-179 -129q-90 -62 -167 -122.5t-128 -132t-57 -143.5z"/>
<glyph unicode="3" horiz-adv-x="1138" d="M162 961h-41q-4 221 124 338.5t351 117.5q184 0 310 -84t126 -258q0 -143 -83 -227t-216 -96v-4q137 -14 231.5 -104.5t94.5 -258.5q0 -186 -136.5 -298t-334.5 -112q-242 0 -382 131.5t-124 364.5h41q-16 -215 111.5 -335t353.5 -120q178 0 304 98.5t126 270.5 q0 326 -400 344h-100v41h100q156 0 264.5 74t108.5 231q-4 156 -117.5 228.5t-277.5 72.5q-205 0 -321.5 -106t-112.5 -309z"/>
<glyph unicode="4" horiz-adv-x="1138" d="M776 362h-706v50l696 981h51v-990h252v-41h-252v-362h-41v362zM776 403v932h-4l-661 -932h665z"/>
<glyph unicode="5" horiz-adv-x="1138" d="M983 1352h-682l-127 -596h4q117 188 381 188q213 0 347 -135t134 -346q0 -221 -133 -354.5t-348 -133.5q-221 0 -356 127t-127 344h41q-8 -201 113.5 -315.5t328.5 -114.5q203 0 321.5 122t118.5 325q0 193 -121.5 316.5t-318.5 123.5q-125 0 -229.5 -55t-159.5 -158h-51 l149 703h715v-41z"/>
<glyph unicode="6" horiz-adv-x="1138" d="M1034 1065h-41q-20 90 -64 154.5t-101.5 96.5t-113 46t-112.5 14q-119 0 -210 -52t-142 -132t-83 -189.5t-41 -209t-7 -205.5h4q29 147 159 248.5t296 101.5q188 0 334.5 -137t146.5 -344q0 -205 -142.5 -343.5t-338.5 -138.5q-133 0 -241 64.5t-165 155.5 q-92 141 -92 462q0 111 15.5 213.5t53 204t95 176t150.5 120.5t210 46q176 0 293 -100t137 -252zM1018 456.5q0 182.5 -129 311.5t-311.5 129t-311.5 -129t-129 -311.5t129 -311.5t311.5 -129t311.5 129t129 311.5z"/>
<glyph unicode="7" horiz-adv-x="1138" d="M969 1352h-844v41h889v-56q-307 -307 -468 -625.5t-161 -711.5h-41q-4 389 159 719t466 633z"/>
<glyph unicode="8" horiz-adv-x="1138" d="M965 1065q0 164 -113 237.5t-283 73.5t-282.5 -73.5t-112.5 -237.5q0 -94 61.5 -160.5t148.5 -94.5t185 -28q156 0 276 73t120 210zM719 768v-4q166 -16 261 -115.5t95 -259.5q0 -205 -143.5 -309.5t-362.5 -104.5t-362.5 104.5t-143.5 309.5q0 160 95.5 259.5 t261.5 115.5v4q-123 18 -205 99t-82 198q0 178 121 265t315.5 87t315.5 -87t121 -265q0 -117 -82 -198t-205 -99zM1034 389q0 186 -131 269t-333.5 83t-334 -83t-131.5 -269q0 -188 132.5 -280.5t333 -92.5t332.5 92.5t132 280.5z"/>
<glyph unicode="9" horiz-adv-x="1138" d="M1001 936q0 182 -129 311t-311 129t-311 -129t-129 -311t129 -311t311 -129t311 129t129 311zM104 328h41q20 -90 64.5 -154.5t102 -96.5t112.5 -46.5t113 -14.5q121 0 211 52.5t141 132.5t83 189.5t41 208.5t7 206h-4q-33 -150 -161 -250t-294 -100q-188 0 -334.5 137 t-146.5 344q0 205 142.5 343t338.5 138q133 0 240.5 -64.5t165.5 -154.5q94 -141 94 -463q0 -141 -25.5 -267t-83 -240.5t-165 -183.5t-252.5 -69q-176 0 -293.5 100.5t-137.5 252.5z"/>
<glyph unicode=":" horiz-adv-x="569" d="M305 852h-41v201h41v-201zM305 0h-41v201h41v-201z"/>
<glyph unicode=";" horiz-adv-x="569" d="M305 852h-41v201h41v-201zM305 201v-201q0 -180 -90 -244v41q49 49 49 203v201h41z"/>
<glyph unicode="&lt;" horiz-adv-x="1228" d="M1135 27v-43l-1041 510v49l1041 510v-43l-1004 -492z"/>
<glyph unicode="=" horiz-adv-x="1228" d="M1130 299h-1032v41h1032v-41zM1130 696h-1032v41h1032v-41z"/>
<glyph unicode="&gt;" horiz-adv-x="1228" d="M94 27l1004 491l-1004 492v43l1041 -510v-49l-1041 -510v43z"/>
<glyph unicode="?" d="M516 0h-41v201h41v-201zM113 1010h-41q-8 217 111.5 352t332.5 135q174 0 289 -90t115 -250q0 -39 -6.5 -73.5t-14.5 -62.5t-25.5 -56.5l-28.5 -45t-34 -41l-32 -33.5t-32.5 -29.5t-27.5 -24.5q-119 -113 -161 -195t-42 -223h-41q0 139 43 231t158 203q2 2 32.5 27.5 t54 51t53.5 65.5t46.5 93.5t16.5 112.5q0 141 -101.5 220t-261.5 79q-199 0 -305 -121.5t-98 -324.5z"/>
<glyph unicode="@" horiz-adv-x="1638" d="M1167 985l50 135h43l-228 -590q-90 -219 51 -219q135 0 266.5 159t131.5 372q0 254 -177.5 414.5t-445.5 160.5q-297 0 -498.5 -201.5t-201.5 -492.5q0 -334 200.5 -520.5t499.5 -186.5q180 0 337 90.5t257 233.5h47q-98 -164 -275 -264.5t-366 -100.5q-141 0 -271 45.5 t-236.5 133.5t-170 235.5t-63.5 333.5q0 313 217 524t524 211q283 0 473.5 -169t190.5 -447q0 -227 -142.5 -399.5t-300.5 -172.5q-61 0 -96 37t-25 92h-4q-94 -129 -278 -129q-117 0 -198 87t-81 210q0 131 58.5 265.5t174 230.5t253.5 96q98 0 176 -47t104 -127h4z M999 557l146 377q-25 96 -102.5 140t-168.5 44q-180 0 -308 -181t-128 -370q0 -109 70 -182.5t176 -73.5q219 0 315 246z"/>
<glyph unicode="A" horiz-adv-x="1177" d="M963 481h-746l-194 -481h-48l594 1462h54l577 -1462h-45zM233 522h713l-348 899h-4z"/>
<glyph unicode="B" horiz-adv-x="1251" d="M137 1421v-639h588q156 0 263.5 83t107.5 233q0 160 -103.5 241.5t-267.5 81.5h-588zM96 0v1462h629q180 0 296 -94t116 -270q0 -133 -88 -229.5t-222 -104.5v-4q150 -4 252.5 -102.5t102.5 -260.5q0 -190 -132 -293.5t-350 -103.5h-604zM137 741v-700h582q186 0 304 91 t118 263q0 176 -121 261t-295 85h-588z"/>
<glyph unicode="C" horiz-adv-x="1402" d="M1315 573h41q-39 -274 -207 -441t-436 -167q-291 0 -476.5 213t-185.5 541q0 111 23.5 217t77 208.5t130 180.5t195.5 125t262 47q137 0 252 -48t183.5 -122t107.5 -152.5t41 -150.5h-41q-12 168 -163.5 300t-379.5 132q-139 0 -251.5 -48t-184.5 -124t-121 -175 t-69.5 -196.5t-20.5 -193.5q0 -293 168 -503t453 -210q254 0 411.5 157.5t190.5 409.5z"/>
<glyph unicode="D" horiz-adv-x="1327" d="M152 1421v-1380h417q276 0 455.5 177t179.5 513q0 158 -33.5 281t-89 198.5t-134.5 124.5t-159.5 67.5t-175.5 18.5h-460zM111 0v1462h512q119 0 222 -34.5t196.5 -113.5t148.5 -228.5t55 -354.5q0 -190 -56 -334.5t-154.5 -228.5t-218.5 -126t-257 -42h-448z"/>
<glyph unicode="E" horiz-adv-x="1099" d="M152 741v-700h938v-41h-979v1462h970v-41h-929v-639h874v-41h-874z"/>
<glyph unicode="F" horiz-adv-x="985" d="M152 1421v-639h778v-41h-778v-741h-41v1462h901v-41h-860z"/>
<glyph unicode="G" horiz-adv-x="1478" d="M1339 643h-567v41h608v-686h-41v364h-4q-57 -184 -212.5 -290.5t-370.5 -106.5q-326 0 -506 218t-180 548t185 548t501 218q246 0 407.5 -133t198.5 -358h-41q-37 207 -188.5 328.5t-376.5 121.5q-297 0 -471.5 -207t-174.5 -518q0 -315 170 -520t482 -205 q246 0 413.5 160t167.5 401v76z"/>
<glyph unicode="H" horiz-adv-x="1327" d="M1176 741h-1024v-741h-41v1462h41v-680h1024v680h41v-1462h-41v741z"/>
<glyph unicode="I" horiz-adv-x="262" d="M111 0v1462h41v-1462h-41z"/>
<glyph unicode="J" horiz-adv-x="948" d="M786 412v1050h41v-1081q0 -416 -401 -416q-199 0 -294 108.5t-95 291.5v88h41v-88q0 -358 348 -359q182 0 271 92.5t89 313.5z"/>
<glyph unicode="K" horiz-adv-x="1214" d="M487 815l-335 -297v-518h-41v1462h41v-889l1013 889h62l-707 -622l748 -840h-56z"/>
<glyph unicode="L" horiz-adv-x="985" d="M152 41h854v-41h-895v1462h41v-1421z"/>
<glyph unicode="M" horiz-adv-x="1597" d="M801 53l618 1409h68v-1462h-41v1411h-4l-621 -1411h-45l-620 1411h-4v-1411h-41v1462h67l619 -1409h4z"/>
<glyph unicode="N" horiz-adv-x="1327" d="M111 0v1462h61l999 -1411h5v1411h41v-1462h-62l-999 1411h-4v-1411h-41z"/>
<glyph unicode="O" horiz-adv-x="1476" d="M66 731.5q0 325.5 179 545.5t494.5 220t494.5 -220t179 -545.5t-179 -546t-494.5 -220.5t-494.5 220.5t-179 546zM106 731q4 -322 173.5 -523.5t459.5 -201.5q289 0 459 202t174 523q-4 322 -174 523.5t-459 201.5q-291 0 -460 -201.5t-173 -523.5z"/>
<glyph unicode="P" horiz-adv-x="1175" d="M152 666v-666h-41v1462h591q213 0 329 -101t116 -298q0 -188 -128 -292.5t-337 -104.5h-530zM152 1421v-714h550q178 0 291 95t113 261q0 358 -404 358h-550z"/>
<glyph unicode="Q" horiz-adv-x="1476" d="M1411 -45l-242 164q-174 -154 -430 -154q-315 0 -494 220.5t-179 546t179 545.5t494.5 220t494.5 -220t179 -546q0 -375 -217 -586l236 -161zM1133 143l-259 176l23 33l264 -182q207 201 211 561q-4 322 -174 523.5t-459 201.5q-291 0 -459.5 -201.5t-173.5 -523.5 q4 -322 173.5 -523.5t459.5 -201.5q232 0 394 137z"/>
<glyph unicode="R" horiz-adv-x="1251" d="M152 686v-686h-41v1462h598q225 0 333.5 -91t112.5 -284v-13q0 -136 -78 -230q-82 -98 -235 -133v-4q174 -23 231 -117t57 -289q0 -252 35 -301h-45q-31 68 -30 307q0 98 -13.5 161.5t-53.5 117t-119 77t-202 23.5h-550zM152 1421v-694h546q178 0 297 92t119 273 q-4 330 -395 329h-567z"/>
<glyph unicode="S" horiz-adv-x="1251" d="M1128 1053h-41q-14 403 -475 403q-84 0 -159.5 -16.5t-145 -52t-111.5 -104.5t-42 -163q0 -39 8 -72.5t19.5 -59t35 -49.5t41.5 -40t54 -32.5t58.5 -26t68.5 -21.5l70 -18q24 -6 75 -17.5t73 -17.5q18 -4 79 -19.5t79.5 -21.5l68.5 -21.5t68 -24.5l57 -29q38 -19 52 -37 l39 -45q25 -28 33 -57.5t16 -68.5t8 -84q0 -193 -152.5 -293t-363.5 -100q-266 0 -421 128q-151 125 -150 379v13h41q0 -479 530 -479q195 0 335 89t140 265q0 53 -14.5 98.5t-32.5 77t-56 58.5t-68 43t-82 32.5t-82.5 24.5t-90.5 22l-86 19q-233 53 -315 94 q-176 90 -176 291q0 104 44 180t118.5 117t158.5 60.5t178 19.5q493 0 516 -444z"/>
<glyph unicode="T" d="M492 1421h-527v41h1094v-41h-527v-1421h-40v1421z"/>
<glyph unicode="U" horiz-adv-x="1294" d="M1143 545v917h41v-917q0 -291 -137.5 -435.5t-399.5 -144.5t-399 144.5t-137 435.5v917h41v-917q0 -539 495.5 -539t495.5 539z"/>
<glyph unicode="V" horiz-adv-x="1101" d="M561 53l537 1409h41l-557 -1462h-45l-574 1462h41l553 -1409h4z"/>
<glyph unicode="W" horiz-adv-x="1781" d="M1354 51l407 1411h41l-424 -1462h-55l-430 1411h-4l-422 -1411h-55l-432 1462h43l413 -1411h4l422 1411h60l428 -1411h4z"/>
<glyph unicode="X" horiz-adv-x="1064" d="M535 784l509 678h52l-533 -710l557 -752h-51l-534 719l-539 -719h-51l563 752l-533 710h54z"/>
<glyph unicode="Y" horiz-adv-x="1101" d="M551 659l563 803h49l-592 -846v-616h-41v616l-591 846h51z"/>
<glyph unicode="Z" d="M2 41h1038v-41h-1079v55l1022 1366h-965v41h1006v-55z"/>
<glyph unicode="[" horiz-adv-x="454" d="M197 1497h231v-41h-190v-1778h190v-40h-231v1859z"/>
<glyph unicode="\" horiz-adv-x="681" d="M696 -35h-41l-669 1532h41z"/>
<glyph unicode="]" horiz-adv-x="454" d="M258 -362h-231v40h190v1778h-190v41h231v-1859z"/>
<glyph unicode="^" horiz-adv-x="1228" d="M635 1393l473 -928h-41l-453 887l-452 -887h-41l473 928h41z"/>
<glyph unicode="_" d="M1024 -256h-1024v102h1024v-102z"/>
<glyph unicode="`" horiz-adv-x="266" d="M207 1204l-285 295h60l256 -295h-31z"/>
<glyph unicode="a" horiz-adv-x="985" d="M152 727h-41q8 156 110.5 253t290.5 97q340 0 348 -301v-670q0 -37 21.5 -54t51.5 -15l60 4v-41q-20 -2 -61 -2q-113 0 -113 104v138h-4q-35 -109 -148.5 -187t-269.5 -78q-162 0 -257 74t-95 211q0 76 21.5 132.5t54.5 89t84 53t97 28.5t106 12q256 14 311 31 q94 49 100 139q0 57 -9 100.5t-38 90.5t-94.5 73.5t-165.5 26.5q-164 0 -257 -79.5t-103 -229.5zM819 424v194h-4q-10 -16 -29.5 -28t-47 -20.5t-53.5 -13.5t-65 -8l-68 -5q-28 -2 -74 -4t-70 -4q-72 -4 -122 -16.5t-99.5 -40t-75 -82t-25.5 -136.5q0 -102 73.5 -173 t233.5 -71q197 0 311.5 121t114.5 287z"/>
<glyph unicode="b" horiz-adv-x="1099" d="M154 1462v-704h4q37 147 147.5 233t274.5 86q209 0 328.5 -159.5t119.5 -393.5q0 -242 -122 -395.5t-326 -153.5q-156 0 -267.5 88.5t-154.5 231.5h-4v-295h-41v1462h41zM154 524q0 -213 114.5 -360.5t311.5 -147.5q195 0 301 146.5t106 361.5q0 129 -40 242t-136 191.5 t-231 78.5q-195 0 -310.5 -135t-115.5 -377z"/>
<glyph unicode="c" d="M920 358h41q-16 -176 -134 -279.5t-297 -103.5q-217 0 -342 152t-125 377q0 244 126 408.5t366 164.5q154 0 266.5 -91t130.5 -253h-41q-25 147 -122 225t-234 78q-121 0 -211 -47t-140 -127t-75 -170t-25 -188q0 -203 114 -345.5t312 -142.5q158 0 268 93t122 249z"/>
<glyph unicode="d" horiz-adv-x="1099" d="M932 758v704h41v-1462h-41v295h-4q-43 -143 -154.5 -231.5t-267.5 -88.5q-205 0 -327 154t-122 395q0 233 120 393t329 160q164 0 274.5 -86t147.5 -233h4zM932 524q0 242 -116 377t-310 135q-135 0 -231.5 -78.5t-136.5 -191.5t-40 -242q0 -215 106.5 -361.5 t301.5 -146.5q197 0 311.5 147.5t114.5 360.5z"/>
<glyph unicode="e" d="M973 518h-881q4 -229 104.5 -365.5t311.5 -136.5q168 0 276.5 89.5t135.5 259.5h41q-20 -178 -144.5 -284t-304.5 -106h-12q-222 0 -334 149q-115 153 -115 402q0 252 136.5 401.5t324.5 149.5q231 0 350 -163q111 -152 111 -366q1 -15 0 -30zM92 559h840 q0 203 -109.5 340t-306.5 137q-174 0 -293 -130t-131 -347z"/>
<glyph unicode="f" horiz-adv-x="417" d="M178 1012h-180v41h180v233q0 59 18.5 97t53.5 54.5t63.5 20.5t71.5 4q16 0 32.5 -1t33 -4t22.5 -3v-41q-51 8 -96 8q-94 0 -126 -33.5t-32 -115.5v-219h227v-41h-227v-1012h-41v1012z"/>
<glyph unicode="g" horiz-adv-x="1062" d="M913 35v317h-4q-33 -135 -151.5 -215t-261.5 -80q-209 0 -324 144.5t-115 359.5q0 223 119 369.5t334 146.5q147 0 255.5 -86t143.5 -219h4v281h41v-1018q0 -213 -113.5 -317.5t-324.5 -104.5q-172 0 -284.5 82t-116.5 250h41q4 -147 104 -219t254 -72q399 0 399 381z M911 561q0 195 -106.5 335t-294.5 140q-197 0 -304.5 -136t-107.5 -339t104.5 -333t291.5 -130q197 0 307 132t110 331z"/>
<glyph unicode="h" d="M113 0v1462h41v-669h4q29 127 129 205.5t250 78.5q168 0 271 -99t103 -280v-698h-41v692q0 172 -94 258t-239 86q-180 0 -281.5 -127t-101.5 -313v-596h-41z"/>
<glyph unicode="i" horiz-adv-x="266" d="M154 1462v-207h-41v207h41zM154 1053v-1053h-41v1053h41z"/>
<glyph unicode="j" horiz-adv-x="266" d="M154 1462v-207h-41v207h41zM154 1053v-1207q0 -133 -58.5 -170.5t-195.5 -37.5v40q129 0 171 30t42 153v1192h41z"/>
<glyph unicode="k" horiz-adv-x="909" d="M426 623l-272 -226v-397h-41v1462h41v-1013l727 604h59l-483 -402l518 -651h-55z"/>
<glyph unicode="l" horiz-adv-x="266" d="M113 0v1462h41v-1462h-41z"/>
<glyph unicode="m" horiz-adv-x="1593" d="M113 0v1053h41v-260h4q29 123 122 203.5t214 80.5h14q112 0 190 -61q84 -66 111 -185h4q31 111 122 178.5t212 67.5q180 0 257 -100t77 -285v-692h-41v692q0 168 -65.5 256t-227.5 88q-150 0 -240 -107.5t-90 -260.5v-668h-41v676q0 170 -60.5 265t-221.5 95 q-152 0 -246 -129t-94 -311v-596h-41z"/>
<glyph unicode="n" d="M113 0v1053h41v-260h4q29 127 129 205.5t250 78.5q168 0 271 -99t103 -280v-698h-41v692q0 172 -94 258t-239 86q-180 0 -281.5 -127t-101.5 -313v-596h-41z"/>
<glyph unicode="o" horiz-adv-x="1062" d="M98 526q0 -213 115 -361.5t319 -148.5q201 0 317 148.5t116 361.5q0 209 -116 359.5t-317 150.5q-203 0 -318.5 -149.5t-115.5 -360.5zM57 526.5q0 229.5 127 390t348 160.5q219 0 346.5 -161.5t127.5 -389.5q0 -229 -127 -390t-348.5 -161t-347.5 161t-126 390.5z"/>
<glyph unicode="p" horiz-adv-x="1099" d="M154 295v-657h-41v1415h41v-295h4q43 143 154.5 231t267.5 88q205 0 326.5 -153.5t121.5 -395.5q0 -233 -120 -393t-328 -160q-164 0 -274.5 86t-147.5 234h-4zM580 16q135 0 231 79t136 191.5t40 241.5q0 215 -106.5 361.5t-300.5 146.5q-197 0 -311.5 -147.5 t-114.5 -360.5q0 -242 115.5 -377t310.5 -135z"/>
<glyph unicode="q" horiz-adv-x="1099" d="M932 528q0 213 -115 360.5t-311 147.5q-195 0 -301.5 -146.5t-106.5 -361.5q0 -129 40 -241.5t136.5 -191.5t231.5 -79q195 0 310.5 135t115.5 377zM932 758v295h41v-1415h-41v657h-4q-37 -147 -147.5 -233.5t-274.5 -86.5q-209 0 -329 160t-120 393q0 242 122 395.5 t327 153.5q156 0 267.5 -88t154.5 -231h4z"/>
<glyph unicode="r" horiz-adv-x="530" d="M154 596v-596h-41v1053h41v-260h4q33 129 135 208q97 76 261 76h17v-41q-15 1 -30 1q-118 0 -204 -57q-97 -65 -140 -164t-43 -220z"/>
<glyph unicode="s" horiz-adv-x="948" d="M840 741h-41q0 295 -340 295q-102 0 -172 -27.5t-97.5 -71.5t-37 -72.5t-9.5 -51.5q0 -135 117 -184q37 -14 270 -78l72 -19q16 -4 65.5 -20t66.5 -28l51 -33q34 -23 46.5 -46.5t24.5 -59.5t12 -77q0 -100 -58 -168.5t-141 -96.5t-182 -28q-426 0 -426 385h41 q0 -344 385 -344q133 0 236.5 61.5t103.5 186.5q0 63 -23.5 106.5t-82.5 72t-96 41t-127 32.5q-23 6 -33 8q-166 41 -236 72q-127 55 -127 217q0 102 88.5 183t268.5 81q381 0 381 -336z"/>
<glyph unicode="t" horiz-adv-x="493" d="M463 1012h-238v-807q0 -55 12.5 -91t36 -50.5t43 -18.5t50.5 -4q76 0 90 6v-41q-74 -6 -101 -6q-172 0 -172 197v815h-194v41h194v331h41v-331h238v-41z"/>
<glyph unicode="u" d="M911 1053v-1053h-41v260h-4q-29 -127 -129 -206t-250 -79q-168 0 -271 99.5t-103 279.5v699h41v-693q0 -172 94 -258t239 -86q180 0 281.5 127t101.5 314v596h41z"/>
<glyph unicode="v" horiz-adv-x="833" d="M436 41l377 1012h45l-397 -1053h-51l-435 1053h50l407 -1012h4z"/>
<glyph unicode="w" horiz-adv-x="1402" d="M1059 41l319 1012h41l-336 -1053h-53l-328 1012h-4l-329 -1012h-58l-327 1053h41l313 -1012h4l326 1012h63l324 -1012h4z"/>
<glyph unicode="x" horiz-adv-x="833" d="M416 575l362 478h49l-385 -508l422 -545h-51l-397 514l-396 -514h-51l422 545l-383 508h53z"/>
<glyph unicode="y" horiz-adv-x="833" d="M438 55l377 998h43l-485 -1268q-20 -51 -48 -82t-68 -45t-72.5 -17t-90.5 -3v40q115 0 163 23t83 113l76 196l-441 1043h45z"/>
<glyph unicode="z" horiz-adv-x="833" d="M53 41h770v-41h-813v51l738 961h-682v41h725v-52z"/>
<glyph unicode="{" horiz-adv-x="681" d="M573 -362h-102q-84 0 -116.5 53t-32.5 174v334q0 133 -31 215t-117 139v41q66 12 107 112.5t41 229.5v338q0 121 32.5 172t116.5 51h102v-41h-98q-63 0 -88 -47t-25 -172v-336q0 -104 -37.5 -203.5t-109.5 -128.5q68 -33 107.5 -125t39.5 -211v-331q0 -131 26 -177.5 t87 -46.5h98v-40z"/>
<glyph unicode="|" horiz-adv-x="454" d="M248 -438h-41v2048h41v-2048z"/>
<glyph unicode="}" horiz-adv-x="681" d="M109 1497h102q84 0 116.5 -53t32.5 -174v-334q0 -135 31 -218t117 -136v-41q-66 -12 -107 -112.5t-41 -229.5v-338q0 -121 -32.5 -172t-116.5 -51h-102v40h98q63 0 87.5 47.5t24.5 172.5v335q0 104 38 204t110 128q-68 33 -108 125t-40 211v332q0 131 -26.5 177t-85.5 46 h-98v41z"/>
<glyph unicode="~" horiz-adv-x="1228" d="M1030 616l41 -12q-35 -55 -60.5 -87t-69.5 -60.5t-93 -28.5q-25 0 -52.5 7t-44 13.5t-53 22.5t-49.5 23q-6 2 -41 19t-49 23l-44 15q-30 10 -57.5 14t-58.5 4q-117 0 -200 -149l-41 12q94 178 241 178q82 6 240 -69q168 -72 211 -72q39 0 76 26.5t52 47z"/>
<glyph unicode="¡" horiz-adv-x="378" d="M170 737h41v-1099h-41v1099zM170 1110h41v-201h-41v201z"/>
<glyph unicode="¢" horiz-adv-x="1138" d="M598 1034v-1018h10q150 0 251.5 96.5t117.5 245.5h41q-23 -178 -135.5 -279.5t-284.5 -103.5v-223h-41v223q-209 8 -322.5 168t-113.5 385q0 217 115.5 378t320.5 169v180h41v-180q166 -4 278.5 -93t131.5 -249h-41q-23 143 -121 220t-248 81zM557 16v1018 q-190 -8 -292.5 -156.5t-102.5 -349.5q0 -205 102.5 -354.5t292.5 -157.5z"/>
<glyph unicode="£" horiz-adv-x="1138" d="M283 748h323v-41h-305q61 -109 61 -279q0 -219 -202 -391l4 -4q100 76 209 76q59 0 202 -50q135 -53 197 -53q63 0 120.5 25.5t91.5 53.5t101 91l27 -29q-88 -100 -166 -141t-174 -41q-76 0 -205 51l-48 17l-53 18q-17 6 -44 11.5t-49 5.5q-127 0 -256 -103l-37 41 q242 209 242 422q0 164 -66 279h-156v41h136l-35 63q-27 49 -40.5 76.5t-32.5 72t-27.5 83t-8.5 73.5q0 186 134 283.5t329 97.5q238 0 367 -139t104 -375h-41q20 223 -99.5 348t-330.5 125q-176 0 -299 -86t-123 -254q0 -43 17.5 -97t35 -90t52.5 -97t45 -84z"/>
<glyph unicode="¤" horiz-adv-x="1138" d="M1036 696.5q0 192.5 -137 329.5t-329.5 137t-330 -137t-137.5 -329.5t137.5 -330t330 -137.5t329.5 137.5t137 330zM913 1069l117 117l29 -29l-117 -117q135 -143 135 -344q0 -197 -135 -344l117 -116l-29 -29l-117 117q-143 -131 -344 -136q-197 0 -344 136l-116 -117 l-29 29l117 116q-135 147 -136 344q4 201 136 344l-117 117l29 29l116 -117q147 135 344 135q201 0 344 -135z"/>
<glyph unicode="¥" horiz-adv-x="1138" d="M588 625v-209h301v-41h-301v-375h-41v375h-301v41h301v209h-301v41h282l-485 796h45l479 -784h4l480 784h45l-486 -796h279v-41h-301z"/>
<glyph unicode="¦" horiz-adv-x="454" d="M207 1354h41v-512h-41v512zM248 330v-512h-41v512h41z"/>
<glyph unicode="§" horiz-adv-x="1138" d="M981 420q0 104 -66.5 184t-271.5 213l-83 51l-108 63l-75 42q-70 -18 -144.5 -89t-74.5 -184q0 -156 204 -284q250 -158 381 -248q78 16 158 86t80 166zM905 1118h-41q-4 162 -83 250t-230 88q-104 0 -194.5 -56.5t-84.5 -178.5q6 -121 117 -203q57 -41 148.5 -92.5 l128.5 -73.5q217 -139 286.5 -225t69.5 -209q0 -98 -81 -178t-159 -101q131 -109 121 -252q-12 -135 -105 -204.5t-229 -69.5q-174 0 -268 103.5t-90 293.5h41q-2 -166 74.5 -260t242.5 -96q143 0 218 73.5t75 159.5t-29.5 138.5t-134.5 126.5q-47 35 -175 113.5t-185 117.5 q-135 90 -178 164t-43 170q0 94 66.5 172t156.5 112q-109 92 -109 224q0 80 34 138t88.5 85t103.5 38t98 11q160 0 255 -103.5t95 -275.5z"/>
<glyph unicode="¨" horiz-adv-x="266" d="M313 1257h-41v166h41v-166zM-6 1257h-41v166h41v-166z"/>
<glyph unicode="©" horiz-adv-x="1638" d="M94 731q0 -303 211 -514t514 -211q301 0 513 212t212 513q0 299 -213 512t-512 213q-301 0 -513 -212t-212 -513zM53 731.5q0 317.5 224.5 541.5t542 224t541.5 -224t224 -541.5t-224 -542t-541.5 -224.5t-542 224.5t-224.5 542zM1214 877h-40q-18 129 -113.5 198.5 t-224.5 69.5q-186 0 -295 -120t-109 -304q0 -186 111.5 -310t298.5 -124q117 0 209 73.5t123 204.5h40q-33 -143 -133 -231t-239 -88q-203 0 -327 135t-124 338q0 207 120 337t325 130q150 0 255 -82t123 -227z"/>
<glyph unicode="ª" horiz-adv-x="614" d="M614 807v-41h-39q-72 0 -71 63v84h-4v-14q-51 -147 -271 -147q-98 0 -163.5 43t-65.5 129q0 47 15.5 82.5t37 55t58 32t66.5 16.5t75 8q16 0 52 1t53.5 2t45 4t42 9.5t31 15.5t22.5 24.5t6 35.5q0 90 -47 128t-152 38q-199 0 -221 -172h-41q23 213 262 213 q231 0 240 -182v-389q-1 -51 69 -39zM504 1032v98h-4q-18 -33 -95 -43t-155 -10t-142.5 -35.5t-66.5 -117.5q0 -68 55.5 -99.5t132.5 -31.5q129 0 202 67.5t73 171.5z"/>
<glyph unicode="«" horiz-adv-x="720" d="M537 319v-71l-211 284v33l211 285v-72l-170 -229zM346 319v-71l-211 284v33l211 285v-72l-170 -229z"/>
<glyph unicode="¬" horiz-adv-x="1228" d="M1090 190v506h-992v41h1032v-547h-40z"/>
<glyph unicode="­" horiz-adv-x="681" d="M162 528v41h358v-41h-358z"/>
<glyph unicode="®" horiz-adv-x="1638" d="M94 731q0 -303 211 -514t514 -211q301 0 513 212t212 513q0 299 -213 512t-512 213q-301 0 -513 -212t-212 -513zM53 731.5q0 317.5 224.5 541.5t542 224t541.5 -224t224 -541.5t-224 -542t-541.5 -224.5t-542 224.5t-224.5 542zM602 725h213q285 0 285 195 q0 197 -254 196h-244v-391zM561 276v881h289q291 0 291 -237q0 -106 -64.5 -164t-165.5 -66l271 -414h-52l-264 410q-10 -2 -32 -2h-31h-201v-408h-41z"/>
<glyph unicode="¯" horiz-adv-x="266" d="M371 1352v-41h-475v41h475z"/>
<glyph unicode="°" horiz-adv-x="819" d="M702 1124q0 -123 -85 -210t-207.5 -87t-207.5 85t-85 212q0 119 86 206t206.5 87t206.5 -87t86 -206zM662 1124q0 104 -72 178t-180 74q-100 0 -176 -76.5t-76 -175.5q0 -109 74.5 -182.5t177.5 -73.5q106 0 179 73.5t73 182.5z"/>
<glyph unicode="±" horiz-adv-x="1228" d="M98 0v41h1032v-41h-1032zM594 631v405h41v-405h495v-41h-495v-406h-41v406h-496v41h496z"/>
<glyph unicode="²" horiz-adv-x="681" d="M84 608h563v-41h-610q0 39 14.5 74t26.5 57.5t52 56l54.5 45t70.5 48.5t67 43q127 82 193.5 151.5t66.5 161.5q0 84 -64.5 128t-173.5 44q-131 0 -191.5 -63.5t-58.5 -184.5h-41q4 145 70.5 217t220.5 72q125 0 202 -53t77 -160q0 -90 -54.5 -161.5t-216.5 -178.5 q-125 -80 -194.5 -140.5t-73.5 -115.5z"/>
<glyph unicode="³" horiz-adv-x="681" d="M90 1145h-41q-4 129 82 200.5t227 71.5q121 0 203 -47t82 -158q0 -86 -58.5 -140t-150.5 -54v-4q98 -8 161.5 -61.5t63.5 -153.5q0 -113 -88 -179.5t-217 -66.5q-160 0 -250 78t-81 219h40q-10 -125 69 -190.5t220 -65.5q111 0 188.5 54t77.5 151q0 197 -264 196h-49v43 h53q104 0 174 42t70 132q0 164 -246 164q-266 0 -266 -231z"/>
<glyph unicode="´" horiz-adv-x="266" d="M291 1499h59l-299 -295h-31z"/>
<glyph unicode="µ" horiz-adv-x="1138" d="M967 1053v-1053h-41v260h-4q-29 -127 -129.5 -206t-249.5 -79q-242 0 -328 191h-4v-528h-41v1415h39v-693q0 -172 94 -258t240 -86q180 0 281.5 127t101.5 314v596h41z"/>
<glyph unicode="¶" horiz-adv-x="1228" d="M592 1462h414v-1749h-41v1708h-334v-1708h-41v959q-199 0 -327 112.5t-128 276.5q0 195 120 298t337 103z"/>
<glyph unicode="·" horiz-adv-x="569" d="M219 696.5q0 28.5 18.5 47t47 18.5t47 -18.5t18.5 -47t-18.5 -47t-47 -18.5t-47 18.5t-18.5 47z"/>
<glyph unicode="¸" horiz-adv-x="266" d="M-35 -348l19 39q74 -35 145 -35q63 0 103 31.5t40 81.5q0 88 -108 88q-66 0 -111 -27l-30 20l116 150h41l-84 -115q27 12 68 13q70 0 111.5 -31t43.5 -92q0 -70 -54 -115t-136 -45q-86 0 -164 37z"/>
<glyph unicode="¹" horiz-adv-x="681" d="M371 567v789h-4q-68 -100 -240 -148v39q78 25 130 58.5t110 97.5h45v-836h-41z"/>
<glyph unicode="º" horiz-adv-x="614" d="M41 1087q0 -119 73.5 -206.5t194.5 -87.5t193.5 89t72.5 205q0 115 -72.5 202t-193.5 87t-194.5 -87t-73.5 -202zM0 1087.5q0 137.5 83 233.5t226 96q145 0 226 -96t81 -234q0 -139 -81.5 -237t-227.5 -98q-141 0 -224 99t-83 236.5z"/>
<glyph unicode="»" horiz-adv-x="720" d="M184 778v72l211 -285v-33l-211 -284v71l170 230zM375 778v72l211 -285v-33l-211 -284v71l170 230z"/>
<glyph unicode="¼" horiz-adv-x="1708" d="M453 567v789h-4q-68 -100 -240 -148v39q78 25 130 58.5t110 97.5h45v-836h-41zM295 -70l975 1532h47l-975 -1532h-47zM1300 250v530l-4 -4l-405 -526h409zM1300 209h-452v51l442 576h51v-586h156v-41h-156v-209h-41v209z"/>
<glyph unicode="½" horiz-adv-x="1708" d="M1014 41h563v-41h-610q0 39 14 74t26.5 57.5t52.5 56l54 45t70.5 48t66.5 43.5q127 82 193.5 151.5t66.5 161.5q0 84 -64.5 128t-172.5 44q-131 0 -191.5 -63.5t-58.5 -184.5h-41q4 145 70.5 217t220.5 72q125 0 201.5 -53.5t76.5 -159.5q0 -90 -54 -162t-216 -178 q-125 -80 -194.5 -140.5t-73.5 -115.5zM377 567v789h-4q-68 -100 -240 -148v39q78 25 130 58.5t110 97.5h45v-836h-41zM199 -70l975 1532h47l-975 -1532h-47z"/>
<glyph unicode="¾" horiz-adv-x="1708" d="M180 1145h-41q-4 129 82 200.5t228 71.5q121 0 202.5 -47t81.5 -158q0 -86 -58.5 -140t-150.5 -54v-4q98 -8 162 -61.5t64 -153.5q0 -113 -88.5 -179.5t-217.5 -66.5q-160 0 -250 78t-81 219h41q-10 -125 68.5 -190.5t219.5 -65.5q111 0 189 54t78 151q0 104 -75 151 t-190 47h-24q-16 0 -25 -2v43h54q104 0 173.5 42t69.5 132q0 164 -246 164q-266 0 -266 -231zM406 -70l974 1532h47l-974 -1532h-47zM1399 250v530l-4 -4l-406 -526h410zM1399 209h-453v51l443 576h51v-586h155v-41h-155v-209h-41v209z"/>
<glyph unicode="¿" d="M508 1110h41v-201h-41v201zM911 100h41q8 -217 -111.5 -352t-332.5 -135q-174 0 -289 90t-115 250q0 33 4.5 64.5t13.5 59t18.5 49t25.5 45.5l25.5 38t30.5 35l29 27q7 7 28.5 26.5t23.5 21.5q119 113 161 195t42 223h41q0 -139 -43 -231t-158 -203q-2 -2 -32.5 -27.5 t-53 -51t-52.5 -65.5t-46.5 -93.5t-16.5 -112.5q0 -141 101.5 -220t261.5 -79q199 0 305 121.5t98 324.5z"/>
<glyph unicode="À" horiz-adv-x="1177" d="M963 481h-746l-194 -481h-48l594 1462h54l577 -1462h-45zM233 522h713l-348 899h-4zM592 1593l-285 295h60l256 -295h-31z"/>
<glyph unicode="Á" horiz-adv-x="1177" d="M963 481h-746l-194 -481h-48l594 1462h54l577 -1462h-45zM233 522h713l-348 899h-4zM840 1888h59l-299 -295h-31z"/>
<glyph unicode="Â" horiz-adv-x="1177" d="M963 481h-746l-194 -481h-48l594 1462h54l577 -1462h-45zM233 522h713l-348 899h-4zM844 1599h-41l-211 252l-203 -252h-41l232 285h30z"/>
<glyph unicode="Ã" horiz-adv-x="1177" d="M963 481h-746l-194 -481h-48l594 1462h54l577 -1462h-45zM233 522h713l-348 899h-4zM367 1649h-41q4 63 43 112t96 49q49 0 135 -59t125 -59q80 0 100 112h41q-23 -154 -141 -153q-53 0 -135 59t-125 59t-68.5 -36.5t-29.5 -83.5z"/>
<glyph unicode="Ä" horiz-adv-x="1177" d="M963 481h-746l-194 -481h-48l594 1462h54l577 -1462h-45zM233 522h713l-348 899h-4zM776 1647h-41v165h41v-165zM457 1647h-41v165h41v-165z"/>
<glyph unicode="Å" horiz-adv-x="1177" d="M735 1740.5q0 57.5 -41 98.5t-98 41t-98 -41t-41 -98.5t41 -98t98 -40.5t98 40.5t41 98zM776 1741q0 -74 -53 -127t-127 -53t-127 53t-53 127t53 127t127 53t127 -53t53 -127zM963 481h-746l-194 -481h-48l594 1462h54l577 -1462h-45zM233 522h713l-348 899h-4z"/>
<glyph unicode="Æ" horiz-adv-x="1744" d="M866 1425h-96l-432 -823h528v823zM866 561h-549l-297 -561h-45l775 1462h960v-41h-803v-639h738v-41h-738v-700h803v-41h-844v561z"/>
<glyph unicode="Ç" horiz-adv-x="1402" d="M522 -348l19 39q74 -35 145 -35q63 0 103 31.5t40 81.5q0 88 -108 88q-66 0 -111 -27l-30 20l98 115q-123 6 -234 55q-182 88 -287.5 271.5t-105.5 427.5q0 111 23.5 217t77 208.5t130 180.5t195.5 125t262 47q137 0 252 -48t183.5 -122t107.5 -152.5t41 -150.5h-41 q-12 168 -163.5 300t-379.5 132q-139 0 -251.5 -48t-184.5 -124t-121 -175t-69.5 -196.5t-20.5 -193.5q0 -293 168 -503t453 -210q254 0 411.5 158t190.5 409h41q-29 -203 -129.5 -349t-265.5 -214q-113 -43 -242 -45l-66 -80q27 12 68 13q70 0 111.5 -31t44.5 -92 q0 -70 -54.5 -115t-136.5 -45q-86 0 -164 37z"/>
<glyph unicode="È" horiz-adv-x="1099" d="M152 741v-700h938v-41h-979v1462h970v-41h-929v-639h874v-41h-874zM616 1593l-284 295h59l256 -295h-31z"/>
<glyph unicode="É" horiz-adv-x="1099" d="M152 741v-700h938v-41h-979v1462h970v-41h-929v-639h874v-41h-874zM842 1888h59l-299 -295h-31z"/>
<glyph unicode="Ê" horiz-adv-x="1099" d="M152 741v-700h938v-41h-979v1462h970v-41h-929v-639h874v-41h-874zM840 1599h-41l-211 252l-203 -252h-41l231 285h31z"/>
<glyph unicode="Ë" horiz-adv-x="1099" d="M776 1647h-41v165h41v-165zM457 1647h-41v165h41v-165zM152 741v-700h938v-41h-979v1462h970v-41h-929v-639h874v-41h-874z"/>
<glyph unicode="Ì" horiz-adv-x="262" d="M111 0v1462h41v-1462h-41zM123 1593l-285 295h60l256 -295h-31z"/>
<glyph unicode="Í" horiz-adv-x="262" d="M111 0v1462h41v-1462h-41zM381 1888h59l-299 -295h-30z"/>
<glyph unicode="Î" horiz-adv-x="262" d="M111 0v1462h41v-1462h-41zM379 1599h-41l-211 252l-203 -252h-41l232 285h30z"/>
<glyph unicode="Ï" horiz-adv-x="262" d="M111 0v1462h41v-1462h-41zM311 1647h-41v165h41v-165zM-8 1647h-41v165h41v-165z"/>
<glyph unicode="Ð" horiz-adv-x="1327" d="M760 741h-608v-700h417q276 0 455.5 177t179.5 513q0 158 -33.5 281t-89 198.5t-134.5 124.5t-159.5 67.5t-175.5 18.5h-460v-639h608v-41zM111 741h-131v41h131v680h512q119 0 222 -34.5t196.5 -113.5t148.5 -228.5t55 -354.5q0 -190 -56 -334.5t-154.5 -228.5 t-218.5 -126t-257 -42h-448v741z"/>
<glyph unicode="Ñ" horiz-adv-x="1327" d="M111 0v1462h61l999 -1411h5v1411h41v-1462h-62l-999 1411h-4v-1411h-41zM444 1649h-41q4 63 43 112t97 49q49 0 135 -59t125 -59q80 0 100 112h41q-23 -154 -141 -153q-53 0 -135 59t-125 59t-69 -36.5t-30 -83.5z"/>
<glyph unicode="Ò" horiz-adv-x="1476" d="M66 731.5q0 325.5 179 545.5t494.5 220t494.5 -220t179 -545.5t-179 -546t-494.5 -220.5t-494.5 220.5t-179 546zM106 731q4 -322 173.5 -523.5t459.5 -201.5q289 0 459 202t174 523q-4 322 -174 523.5t-459 201.5q-291 0 -460 -201.5t-173 -523.5zM729 1593l-285 295h60 l256 -295h-31z"/>
<glyph unicode="Ó" horiz-adv-x="1476" d="M66 731.5q0 325.5 179 545.5t494.5 220t494.5 -220t179 -545.5t-179 -546t-494.5 -220.5t-494.5 220.5t-179 546zM106 731q4 -322 173.5 -523.5t459.5 -201.5q289 0 459 202t174 523q-4 322 -174 523.5t-459 201.5q-291 0 -460 -201.5t-173 -523.5zM993 1888h60 l-299 -295h-31z"/>
<glyph unicode="Ô" horiz-adv-x="1476" d="M66 731.5q0 325.5 179 545.5t494.5 220t494.5 -220t179 -545.5t-179 -546t-494.5 -220.5t-494.5 220.5t-179 546zM106 731q4 -322 173.5 -523.5t459.5 -201.5q289 0 459 202t174 523q-4 322 -174 523.5t-459 201.5q-291 0 -460 -201.5t-173 -523.5zM995 1599h-41 l-211 252l-202 -252h-41l231 285h31z"/>
<glyph unicode="Õ" horiz-adv-x="1476" d="M66 731.5q0 325.5 179 545.5t494.5 220t494.5 -220t179 -545.5t-179 -546t-494.5 -220.5t-494.5 220.5t-179 546zM106 731q4 -322 173.5 -523.5t459.5 -201.5q289 0 459 202t174 523q-4 322 -174 523.5t-459 201.5q-291 0 -460 -201.5t-173 -523.5zM518 1649h-41 q4 63 43 112t96 49q49 0 135.5 -59t125.5 -59q80 0 100 112h41q-23 -154 -141 -153q-53 0 -135.5 59t-125.5 59t-68.5 -36.5t-29.5 -83.5z"/>
<glyph unicode="Ö" horiz-adv-x="1476" d="M66 731.5q0 325.5 179 545.5t494.5 220t494.5 -220t179 -545.5t-179 -546t-494.5 -220.5t-494.5 220.5t-179 546zM106 731q4 -322 173.5 -523.5t459.5 -201.5q289 0 459 202t174 523q-4 322 -174 523.5t-459 201.5q-291 0 -460 -201.5t-173 -523.5zM924 1647h-41v165h41 v-165zM604 1647h-41v165h41v-165z"/>
<glyph unicode="×" horiz-adv-x="1228" d="M586 518l-389 389l28 27l387 -391l392 391l28 -27l-391 -389l391 -389l-28 -29l-392 392l-387 -392l-28 29z"/>
<glyph unicode="Ø" horiz-adv-x="1476" d="M82 35l149 166q-166 213 -165 530q0 326 179 546t494 220q293 0 480 -203l120 133l31 -24l-125 -139q168 -207 168 -532.5t-179 -546t-495 -220.5q-301 0 -481 207l-145 -162zM1217 1231l-930 -1028q168 -197 452 -197q289 0 459 202t174 523q-3 310 -155 500zM260 233 l930 1031q-170 193 -451 192q-291 0 -459.5 -201.5t-173.5 -523.5q4 -308 154 -498z"/>
<glyph unicode="Ù" horiz-adv-x="1294" d="M1143 545v917h41v-917q0 -291 -137.5 -435.5t-399.5 -144.5t-399 144.5t-137 435.5v917h41v-917q0 -539 495.5 -539t495.5 539zM635 1593l-285 295h60l256 -295h-31z"/>
<glyph unicode="Ú" horiz-adv-x="1294" d="M1143 545v917h41v-917q0 -291 -137.5 -435.5t-399.5 -144.5t-399 144.5t-137 435.5v917h41v-917q0 -539 495.5 -539t495.5 539zM899 1888h59l-299 -295h-30z"/>
<glyph unicode="Û" horiz-adv-x="1294" d="M1143 545v917h41v-917q0 -291 -137.5 -435.5t-399.5 -144.5t-399 144.5t-137 435.5v917h41v-917q0 -539 495.5 -539t495.5 539zM899 1599h-41l-211 252l-203 -252h-41l232 285h31z"/>
<glyph unicode="Ü" horiz-adv-x="1294" d="M1143 545v917h41v-917q0 -291 -137.5 -435.5t-399.5 -144.5t-399 144.5t-137 435.5v917h41v-917q0 -539 495.5 -539t495.5 539zM825 1647h-41v165h41v-165zM506 1647h-41v165h41v-165z"/>
<glyph unicode="Ý" horiz-adv-x="1101" d="M551 659l563 803h49l-592 -846v-616h-41v616l-591 846h51zM797 1888h59l-299 -295h-31z"/>
<glyph unicode="Þ" horiz-adv-x="1175" d="M152 1208h550q213 0 329 -101t116 -298q0 -188 -128 -292.5t-337 -104.5h-530v-412h-41v1462h41v-254zM152 1167v-714h550q178 0 291 95t113 261q0 358 -404 358h-550z"/>
<glyph unicode="ß" horiz-adv-x="985" d="M414 793v41q172 -4 283.5 71.5t111.5 243.5q0 135 -96.5 216t-239.5 81q-39 0 -75 -5t-83 -24.5t-80.5 -51.5t-57 -92.5t-23.5 -139.5v-1133h-41v1139q0 180 105.5 264t254.5 84q154 0 265.5 -92t111.5 -246q0 -131 -66.5 -219t-193.5 -111v-4q336 -33 336 -385 q0 -453 -512 -430v41q471 -29 471 389q0 109 -34 182.5t-100.5 111.5t-146 53.5t-190.5 15.5z"/>
<glyph unicode="à" horiz-adv-x="985" d="M152 727h-41q8 156 110.5 253t290.5 97q340 0 348 -301v-670q0 -37 21.5 -54t51.5 -15l60 4v-41q-20 -2 -61 -2q-113 0 -113 104v138h-4q-35 -109 -148.5 -187t-269.5 -78q-162 0 -257 74t-95 211q0 76 21.5 132.5t54.5 89t84 53t97 28.5t106 12q256 14 311 31 q94 49 100 139q0 57 -9 100.5t-38 90.5t-94.5 73.5t-165.5 26.5q-164 0 -257 -79.5t-103 -229.5zM819 424v194h-4q-10 -16 -29.5 -28t-47 -20.5t-53.5 -13.5t-65 -8l-68 -5q-28 -2 -74 -4t-70 -4q-72 -4 -122 -16.5t-99.5 -40t-75 -82t-25.5 -136.5q0 -102 73.5 -173 t233.5 -71q197 0 311.5 121t114.5 287zM498 1204l-285 295h59l256 -295h-30z"/>
<glyph unicode="á" horiz-adv-x="985" d="M152 727h-41q8 156 110.5 253t290.5 97q340 0 348 -301v-670q0 -37 21.5 -54t51.5 -15l60 4v-41q-20 -2 -61 -2q-113 0 -113 104v138h-4q-35 -109 -148.5 -187t-269.5 -78q-162 0 -257 74t-95 211q0 76 21.5 132.5t54.5 89t84 53t97 28.5t106 12q256 14 311 31 q94 49 100 139q0 57 -9 100.5t-38 90.5t-94.5 73.5t-165.5 26.5q-164 0 -257 -79.5t-103 -229.5zM819 424v194h-4q-10 -16 -29.5 -28t-47 -20.5t-53.5 -13.5t-65 -8l-68 -5q-28 -2 -74 -4t-70 -4q-72 -4 -122 -16.5t-99.5 -40t-75 -82t-25.5 -136.5q0 -102 73.5 -173 t233.5 -71q197 0 311.5 121t114.5 287zM721 1499h59l-299 -295h-30z"/>
<glyph unicode="â" horiz-adv-x="985" d="M152 727h-41q8 156 110.5 253t290.5 97q340 0 348 -301v-670q0 -37 21.5 -54t51.5 -15l60 4v-41q-20 -2 -61 -2q-113 0 -113 104v138h-4q-35 -109 -148.5 -187t-269.5 -78q-162 0 -257 74t-95 211q0 76 21.5 132.5t54.5 89t84 53t97 28.5t106 12q256 14 311 31 q94 49 100 139q0 57 -9 100.5t-38 90.5t-94.5 73.5t-165.5 26.5q-164 0 -257 -79.5t-103 -229.5zM819 424v194h-4q-10 -16 -29.5 -28t-47 -20.5t-53.5 -13.5t-65 -8l-68 -5q-28 -2 -74 -4t-70 -4q-72 -4 -122 -16.5t-99.5 -40t-75 -82t-25.5 -136.5q0 -102 73.5 -173 t233.5 -71q197 0 311.5 121t114.5 287zM750 1210h-41l-211 252l-203 -252h-41l231 285h31z"/>
<glyph unicode="ã" horiz-adv-x="985" d="M152 727h-41q8 156 110.5 253t290.5 97q340 0 348 -301v-670q0 -37 21.5 -54t51.5 -15l60 4v-41q-20 -2 -61 -2q-113 0 -113 104v138h-4q-35 -109 -148.5 -187t-269.5 -78q-162 0 -257 74t-95 211q0 76 21.5 132.5t54.5 89t84 53t97 28.5t106 12q256 14 311 31 q94 49 100 139q0 57 -9 100.5t-38 90.5t-94.5 73.5t-165.5 26.5q-164 0 -257 -79.5t-103 -229.5zM819 424v194h-4q-10 -16 -29.5 -28t-47 -20.5t-53.5 -13.5t-65 -8l-68 -5q-28 -2 -74 -4t-70 -4q-72 -4 -122 -16.5t-99.5 -40t-75 -82t-25.5 -136.5q0 -102 73.5 -173 t233.5 -71q197 0 311.5 121t114.5 287zM260 1260h-41q4 63 43 112t96 49q49 0 135.5 -59t124.5 -59q80 0 101 112h41q-23 -154 -142 -153q-53 0 -135 59t-125 59t-68.5 -36.5t-29.5 -83.5z"/>
<glyph unicode="ä" horiz-adv-x="985" d="M152 727h-41q8 156 110.5 253t290.5 97q340 0 348 -301v-670q0 -37 21.5 -54t51.5 -15l60 4v-41q-20 -2 -61 -2q-113 0 -113 104v138h-4q-35 -109 -148.5 -187t-269.5 -78q-162 0 -257 74t-95 211q0 76 21.5 132.5t54.5 89t84 53t97 28.5t106 12q256 14 311 31 q94 49 100 139q0 57 -9 100.5t-38 90.5t-94.5 73.5t-165.5 26.5q-164 0 -257 -79.5t-103 -229.5zM819 424v194h-4q-10 -16 -29.5 -28t-47 -20.5t-53.5 -13.5t-65 -8l-68 -5q-28 -2 -74 -4t-70 -4q-72 -4 -122 -16.5t-99.5 -40t-75 -82t-25.5 -136.5q0 -102 73.5 -173 t233.5 -71q197 0 311.5 121t114.5 287zM684 1257h-41v166h41v-166zM365 1257h-41v166h41v-166z"/>
<glyph unicode="å" horiz-adv-x="985" d="M152 727h-41q8 156 110.5 253t290.5 97q340 0 348 -301v-670q0 -37 21.5 -54t51.5 -15l60 4v-41q-20 -2 -61 -2q-113 0 -113 104v138h-4q-35 -109 -148.5 -187t-269.5 -78q-162 0 -257 74t-95 211q0 76 21.5 132.5t54.5 89t84 53t97 28.5t106 12q256 14 311 31 q94 49 100 139q0 57 -9 100.5t-38 90.5t-94.5 73.5t-165.5 26.5q-164 0 -257 -79.5t-103 -229.5zM819 424v194h-4q-10 -16 -29.5 -28t-47 -20.5t-53.5 -13.5t-65 -8l-68 -5q-28 -2 -74 -4t-70 -4q-72 -4 -122 -16.5t-99.5 -40t-75 -82t-25.5 -136.5q0 -102 73.5 -173 t233.5 -71q197 0 311.5 121t114.5 287zM629 1372.5q0 57.5 -41 98t-98.5 40.5t-98.5 -40.5t-41 -98t41 -98.5t98.5 -41t98.5 41t41 98.5zM670 1372q0 -74 -53.5 -127t-127 -53t-127 53t-53.5 127t53.5 127t127 53t127 -53t53.5 -127z"/>
<glyph unicode="æ" horiz-adv-x="1820" d="M172 727h-41q8 156 110.5 253t290.5 97q340 0 349 -307h4q43 137 151.5 222t268.5 85q227 0 342.5 -160.5t107.5 -398.5h-874q8 -229 107 -365.5t312 -136.5q162 0 276 91.5t132 257.5h41q-16 -172 -140 -281t-309 -109q-170 -2 -281.5 87.5t-152.5 254.5h-4 q-33 -158 -154.5 -250t-289.5 -92q-162 0 -257 74t-95 211q0 76 21.5 132.5t54 89t83.5 53t97.5 28.5t105.5 12q256 14 311 31q94 49 101 139q0 57 -9.5 100.5t-38 90.5t-94 73.5t-166.5 26.5q-164 0 -257 -79.5t-103 -229.5zM840 424v194h-4q-10 -16 -30 -28t-47.5 -20.5 t-53 -13.5t-65.5 -8l-68 -5q-28 -2 -73.5 -4t-70.5 -4q-72 -4 -122 -16.5t-99 -40t-75 -82t-26 -136.5q0 -102 74 -173t234 -71q197 0 311.5 121t114.5 287zM881 559h833q0 209 -105.5 343t-303.5 134q-188 0 -298 -128t-126 -349z"/>
<glyph unicode="ç" d="M348 -348l19 39q74 -35 145 -35q63 0 103 31.5t40 81.5q0 88 -108 88q-66 0 -111 -27l-30 20l104 125q-98 2 -180 41q-127 63 -197 192.5t-70 295.5q0 244 126 408.5t366 164.5q154 0 266.5 -91t130.5 -253h-41q-25 147 -122 225t-234 78q-121 0 -211 -47t-140 -127 t-75 -170t-25 -188q0 -203 114 -345.5t312 -142.5q158 0 267.5 93.5t122.5 248.5h41q-12 -131 -83 -223t-184 -133q-72 -25 -141 -27l-74 -90q29 12 68 13q70 0 111.5 -31t43.5 -92q0 -70 -54 -115t-136 -45q-86 0 -164 37z"/>
<glyph unicode="è" d="M973 518h-881q4 -229 104.5 -365.5t311.5 -136.5q168 0 276.5 89.5t135.5 259.5h41q-20 -178 -144.5 -284t-304.5 -106q-231 -4 -346 148.5t-115 402.5q0 252 136.5 401.5t324.5 149.5q231 0 350 -163t111 -396zM92 559h840q0 203 -109.5 340t-306.5 137 q-174 0 -293 -130t-131 -347zM508 1204l-285 295h60l256 -295h-31z"/>
<glyph unicode="é" d="M973 518h-881q4 -229 104.5 -365.5t311.5 -136.5q168 0 276.5 89.5t135.5 259.5h41q-20 -178 -144.5 -284t-304.5 -106q-231 -4 -346 148.5t-115 402.5q0 252 136.5 401.5t324.5 149.5q231 0 350 -163t111 -396zM92 559h840q0 203 -109.5 340t-306.5 137 q-174 0 -293 -130t-131 -347zM762 1499h59l-299 -295h-30z"/>
<glyph unicode="ê" d="M973 518h-881q4 -229 104.5 -365.5t311.5 -136.5q168 0 276.5 89.5t135.5 259.5h41q-20 -178 -144.5 -284t-304.5 -106q-231 -4 -346 148.5t-115 402.5q0 252 136.5 401.5t324.5 149.5q231 0 350 -163t111 -396zM92 559h840q0 203 -109.5 340t-306.5 137 q-174 0 -293 -130t-131 -347zM772 1210h-41l-211 252l-203 -252h-41l232 285h31z"/>
<glyph unicode="ë" d="M973 518h-881q4 -229 104.5 -365.5t311.5 -136.5q168 0 276.5 89.5t135.5 259.5h41q-20 -178 -144.5 -284t-304.5 -106q-231 -4 -346 148.5t-115 402.5q0 252 136.5 401.5t324.5 149.5q231 0 350 -163t111 -396zM92 559h840q0 203 -109.5 340t-306.5 137 q-174 0 -293 -130t-131 -347zM700 1257h-41v166h41v-166zM381 1257h-41v166h41v-166z"/>
<glyph unicode="ì" horiz-adv-x="266" d="M154 0h-41v1053h41v-1053zM123 1204l-285 295h60l256 -295h-31z"/>
<glyph unicode="í" horiz-adv-x="266" d="M154 0h-41v1053h41v-1053zM381 1499h59l-299 -295h-30z"/>
<glyph unicode="î" horiz-adv-x="266" d="M154 0h-41v1053h41v-1053zM381 1210h-41l-211 252l-203 -252h-41l232 285h30z"/>
<glyph unicode="ï" horiz-adv-x="266" d="M154 0h-41v1053h41v-1053zM313 1257h-41v166h41v-166zM-6 1257h-41v166h41v-166z"/>
<glyph unicode="ð" horiz-adv-x="1062" d="M98 508q0 -203 116 -346.5t318 -143.5q201 0 317 143.5t116 346.5q0 201 -116 345t-317 144q-203 0 -318.5 -143t-115.5 -346zM262 1190l248 137q-90 72 -191 123l33 29q102 -53 197 -131l252 139l30 -33l-245 -137q219 -203 319.5 -394.5t100.5 -414.5q0 -221 -127 -376 t-348.5 -155t-347.5 155t-126 376q0 219 127 374.5t348 155.5q219 0 332 -147h8q-57 113 -152 226.5t-177 180.5l-250 -139z"/>
<glyph unicode="ñ" d="M113 0v1053h41v-260h4q29 127 129 205.5t250 78.5q168 0 271 -99t103 -280v-698h-41v692q0 172 -94 258t-239 86q-180 0 -281.5 -127t-101.5 -313v-596h-41zM274 1260h-41q4 63 43 112t97 49q49 0 135 -59t125 -59q80 0 100 112h41q-23 -154 -141 -153q-53 0 -135 59 t-125 59t-69 -36.5t-30 -83.5z"/>
<glyph unicode="ò" horiz-adv-x="1062" d="M98 526q0 -213 115 -361.5t319 -148.5q201 0 317 148.5t116 361.5q0 209 -116 359.5t-317 150.5q-203 0 -318.5 -149.5t-115.5 -360.5zM57 526.5q0 229.5 127 390t348 160.5q219 0 346.5 -161.5t127.5 -389.5q0 -229 -127 -390t-348.5 -161t-347.5 161t-126 390.5z M520 1204l-284 295h59l256 -295h-31z"/>
<glyph unicode="ó" horiz-adv-x="1062" d="M98 526q0 -213 115 -361.5t319 -148.5q201 0 317 148.5t116 361.5q0 209 -116 359.5t-317 150.5q-203 0 -318.5 -149.5t-115.5 -360.5zM57 526.5q0 229.5 127 390t348 160.5q219 0 346.5 -161.5t127.5 -389.5q0 -229 -127 -390t-348.5 -161t-347.5 161t-126 390.5z M780 1499h60l-299 -295h-31z"/>
<glyph unicode="ô" horiz-adv-x="1062" d="M98 526q0 -213 115 -361.5t319 -148.5q201 0 317 148.5t116 361.5q0 209 -116 359.5t-317 150.5q-203 0 -318.5 -149.5t-115.5 -360.5zM57 526.5q0 229.5 127 390t348 160.5q219 0 346.5 -161.5t127.5 -389.5q0 -229 -127 -390t-348.5 -161t-347.5 161t-126 390.5z M780 1210h-41l-211 252l-202 -252h-41l231 285h31z"/>
<glyph unicode="õ" horiz-adv-x="1062" d="M98 526q0 -213 115 -361.5t319 -148.5q201 0 317 148.5t116 361.5q0 209 -116 359.5t-317 150.5q-203 0 -318.5 -149.5t-115.5 -360.5zM57 526.5q0 229.5 127 390t348 160.5q219 0 346.5 -161.5t127.5 -389.5q0 -229 -127 -390t-348.5 -161t-347.5 161t-126 390.5z M303 1260h-41q4 63 43 112t96 49q49 0 135.5 -59t125.5 -59q80 0 100 112h41q-23 -154 -141 -153q-53 0 -135.5 59t-125.5 59t-68.5 -36.5t-29.5 -83.5z"/>
<glyph unicode="ö" horiz-adv-x="1062" d="M98 526q0 -213 115 -361.5t319 -148.5q201 0 317 148.5t116 361.5q0 209 -116 359.5t-317 150.5q-203 0 -318.5 -149.5t-115.5 -360.5zM57 526.5q0 229.5 127 390t348 160.5q219 0 346.5 -161.5t127.5 -389.5q0 -229 -127 -390t-348.5 -161t-347.5 161t-126 390.5z M713 1257h-41v166h41v-166zM393 1257h-41v166h41v-166z"/>
<glyph unicode="÷" horiz-adv-x="1228" d="M614 0q-84 0 -84 84q0 37 25 60.5t59.5 23.5t59 -24.5t24.5 -59.5q0 -84 -84 -84zM614 868q-84 0 -84 84q0 37 25 60.5t59.5 23.5t59 -24.5t24.5 -59.5q0 -84 -84 -84zM1130 498h-1032v41h1032v-41z"/>
<glyph unicode="ø" horiz-adv-x="1062" d="M874 920l93 96l28 -29l-96 -100q106 -143 107 -361q0 -229 -127 -390t-349 -161q-217 0 -348 162l-116 -121l-29 29l123 127q-102 145 -103 354q0 229 127 390t348 161q213 1 342 -157zM868 856l-655 -686q115 -154 319 -154q201 0 317 148.5t116 361.5q-1 191 -97 330z M188 203l656 686q-117 147 -312 147q-203 0 -318.5 -149.5t-115.5 -360.5q0 -186 90 -323z"/>
<glyph unicode="ù" d="M911 1053v-1053h-41v260h-4q-29 -127 -129 -206t-250 -79q-168 0 -271 99.5t-103 279.5v699h41v-693q0 -172 94 -258t239 -86q180 0 281.5 127t101.5 314v596h41zM496 1204l-285 295h59l256 -295h-30z"/>
<glyph unicode="ú" d="M911 1053v-1053h-41v260h-4q-29 -127 -129 -206t-250 -79q-168 0 -271 99.5t-103 279.5v699h41v-693q0 -172 94 -258t239 -86q180 0 281.5 127t101.5 314v596h41zM758 1499h59l-299 -295h-31z"/>
<glyph unicode="û" d="M911 1053v-1053h-41v260h-4q-29 -127 -129 -206t-250 -79q-168 0 -271 99.5t-103 279.5v699h41v-693q0 -172 94 -258t239 -86q180 0 281.5 127t101.5 314v596h41zM756 1210h-41l-211 252l-203 -252h-41l232 285h30z"/>
<glyph unicode="ü" d="M911 1053v-1053h-41v260h-4q-29 -127 -129 -206t-250 -79q-168 0 -271 99.5t-103 279.5v699h41v-693q0 -172 94 -258t239 -86q180 0 281.5 127t101.5 314v596h41zM688 1257h-41v166h41v-166zM369 1257h-41v166h41v-166z"/>
<glyph unicode="ý" horiz-adv-x="833" d="M438 55l377 998h43l-485 -1268q-20 -51 -48 -82t-68 -45t-72.5 -17t-90.5 -3v40q115 0 163 23t83 113l76 196l-441 1043h45zM690 1499h60l-299 -295h-31z"/>
<glyph unicode="þ" horiz-adv-x="1099" d="M154 295v-657h-41v1824h41v-704h4q43 147 149.5 233t272.5 86q215 0 331.5 -151.5t116.5 -397.5q0 -154 -45 -274.5t-149.5 -199.5t-253.5 -79q-160 0 -272.5 87.5t-149.5 232.5h-4zM987 528q0 219 -102.5 363.5t-304.5 144.5q-205 0 -315.5 -145.5t-110.5 -362.5 q0 -240 117.5 -376t308.5 -136q147 0 242.5 80t130 189.5t34.5 242.5z"/>
<glyph unicode="ÿ" horiz-adv-x="833" d="M438 55l377 998h43l-485 -1268q-20 -51 -48 -82t-68 -45t-72.5 -17t-90.5 -3v40q115 0 163 23t83 113l76 196l-441 1043h45zM618 1257h-40v166h40v-166zM299 1257h-41v166h41v-166z"/>
<glyph unicode="Œ" horiz-adv-x="2086" d="M1143 193v1083q-96 98 -184.5 139t-217.5 41q-289 0 -459.5 -199.5t-175.5 -533.5q4 -317 174.5 -517t460.5 -200q244 1 402 187zM1184 782h749v-41h-749v-700h848v-41h-889v133q-166 -168 -402 -168q-317 0 -496 218t-179 540q0 211 73.5 383t230 281.5t371.5 109.5 q256 0 402 -168v133h889v-41h-848v-639z"/>
<glyph unicode="œ" horiz-adv-x="1822" d="M1753 518h-823q-4 -502 393 -502q313 0 375 338h41q-31 -178 -136.5 -278.5t-279.5 -100.5t-280.5 90.5t-131.5 256.5h-4q-76 -346 -409 -347q-217 0 -324.5 160t-107.5 391q0 145 38.5 264t140 203t253.5 84q168 0 275.5 -98t131.5 -262h4q68 352 414 360 q213 4 321.5 -148.5t108.5 -379.5v-31zM889 526q0 221 -93.5 365.5t-297.5 144.5q-199 0 -295.5 -146.5t-96.5 -363.5q0 -213 96.5 -361.5t295.5 -148.5q109 0 186.5 41t121.5 115t63.5 161t19.5 193zM930 559h782q-4 211 -98 344t-289 133q-377 0 -395 -477z"/>
<glyph unicode="Ÿ" horiz-adv-x="1101" d="M551 659l563 803h49l-592 -846v-616h-41v616l-591 846h51zM731 1647h-41v165h41v-165zM412 1647h-41v165h41v-165z"/>
<glyph unicode="ˆ" horiz-adv-x="266" d="M381 1210h-41l-211 252l-203 -252h-41l232 285h30z"/>
<glyph unicode="˜" horiz-adv-x="266" d="M-96 1260h-41q4 63 43 112t96 49q49 0 135 -59t125 -59q80 0 100 112h41q-23 -154 -141 -153q-53 0 -135 59t-125 59t-68.5 -36.5t-29.5 -83.5z"/>
<glyph unicode=" " horiz-adv-x="960"/>
<glyph unicode=" " horiz-adv-x="1921"/>
<glyph unicode=" " horiz-adv-x="960"/>
<glyph unicode=" " horiz-adv-x="1921"/>
<glyph unicode=" " horiz-adv-x="638"/>
<glyph unicode=" " horiz-adv-x="479"/>
<glyph unicode=" " horiz-adv-x="319"/>
<glyph unicode=" " horiz-adv-x="319"/>
<glyph unicode=" " horiz-adv-x="239"/>
<glyph unicode=" " horiz-adv-x="382"/>
<glyph unicode=" " horiz-adv-x="106"/>
<glyph unicode="‐" horiz-adv-x="681" d="M162 528v41h358v-41h-358z"/>
<glyph unicode="‑" horiz-adv-x="681" d="M162 528v41h358v-41h-358z"/>
<glyph unicode="‒" horiz-adv-x="681" d="M162 528v41h358v-41h-358z"/>
<glyph unicode="–" d="M0 528v41h1024v-41h-1024z"/>
<glyph unicode="—" horiz-adv-x="2048" d="M1782 569v-41h-1516v41h1516z"/>
<glyph unicode="‘" horiz-adv-x="342" d="M190 1001h-40v242q0 106 18 147.5t74 71.5v-41q-51 -33 -52 -178v-242z"/>
<glyph unicode="’" horiz-adv-x="342" d="M152 1462h41v-241q0 -106 -18.5 -147.5t-74.5 -72.5v41q51 33 52 179v241z"/>
<glyph unicode="‚" horiz-adv-x="342" d="M150 201h40v-201q0 -96 -20 -152.5t-72 -91.5v41q51 45 52 203v201z"/>
<glyph unicode="“" horiz-adv-x="569" d="M416 1001h-41v242q0 106 18.5 147.5t73.5 71.5v-41q-51 -33 -51 -178v-242zM211 1001h-41v242q0 106 18.5 147.5t73.5 71.5v-41q-51 -33 -51 -178v-242z"/>
<glyph unicode="”" horiz-adv-x="569" d="M154 1462h41v-241q0 -106 -18.5 -147.5t-74.5 -72.5v41q51 33 52 179v241zM358 1462h41v-241q0 -106 -18.5 -147.5t-73.5 -72.5v41q51 33 51 179v241z"/>
<glyph unicode="„" horiz-adv-x="569" d="M154 201h41v-201q0 -96 -20.5 -152.5t-72.5 -91.5v41q51 45 52 203v201zM358 201h41v-201q0 -96 -20.5 -152.5t-71.5 -91.5v41q51 45 51 203v201z"/>
<glyph unicode="•" d="M147 731.5q0 151.5 106.5 258t258.5 106.5t259.5 -106.5t107.5 -258t-107.5 -259t-259.5 -107.5t-258.5 107.5t-106.5 259z"/>
<glyph unicode="…" horiz-adv-x="2048" d="M1726 201v-201h-40v201h40zM1044 201v-201h-40v201h40zM362 201v-201h-40v201h40z"/>
<glyph unicode=" " horiz-adv-x="382"/>
<glyph unicode="‹" horiz-adv-x="530" d="M346 319v-71l-211 284v33l211 285v-72l-170 -229z"/>
<glyph unicode="›" horiz-adv-x="530" d="M184 778v72l211 -285v-33l-211 -284v71l170 230z"/>
<glyph unicode=" " horiz-adv-x="479"/>
<glyph unicode="€" horiz-adv-x="1138" d="M1161 205v-55q-178 -180 -430 -181q-246 0 -406.5 165t-199.5 417h-125l14 35h109q-4 29 -4 43v43q0 41 4 119h-123l14 34h113q33 262 196.5 430t421.5 168q209 0 381 -135l-18 -33q-170 131 -365 131q-240 0 -392 -158.5t-183 -402.5h833l-18 -34h-819q-4 -66 -4 -99 q0 -53 6 -106h774l-18 -35h-752q39 -236 188.5 -390.5t378.5 -154.5q256 0 424 199z"/>
<glyph unicode="™" horiz-adv-x="2027" d="M1016 618v844h69l332 -786l332 786h70v-844h-41v803h-4l-336 -803h-41l-336 803h-4v-803h-41zM475 618v803h-307v41h655v-41h-307v-803h-41z"/>
<glyph unicode="" horiz-adv-x="1055" d="M0 1055h1055v-1055h-1055v1055z"/>
<glyph unicode="ﬁ" horiz-adv-x="681" d="M178 1012h-180v41h180v233q0 59 18.5 97t53.5 54.5t63.5 20.5t71.5 4q16 0 32.5 -1t33 -4t22.5 -3v-41q-51 8 -96 8q-94 0 -126 -33.5t-32 -115.5v-219h227v-41h-227v-1012h-41v1012zM569 1462v-207h-41v207h41zM569 1053v-1053h-41v1053h41z"/>
<glyph unicode="ﬂ" horiz-adv-x="681" d="M569 1462v-1462h-41v1462h41zM178 1012h-180v41h180v233q0 59 18.5 97t53.5 54.5t63.5 20.5t71.5 4q16 0 32.5 -1t33 -4t22.5 -3v-41q-51 8 -96 8q-94 0 -126 -33.5t-32 -115.5v-219h227v-41h-227v-1012h-41v1012z"/>
<glyph unicode="ﬃ" horiz-adv-x="1101" d="M990 1462v-207h-41v207h41zM990 1053v-1053h-41v1053h41zM596 1012h-180v41h180v233q0 59 18.5 97t53.5 54.5t63.5 20.5t71.5 4q16 0 32.5 -1t33 -4t22.5 -3v-41q-51 8 -96 8q-94 0 -126 -33.5t-32 -115.5v-219h227v-41h-227v-1012h-41v1012zM178 1012h-180v41h180v233 q0 59 18.5 97t53.5 54.5t63.5 20.5t71.5 4q16 0 32.5 -1t33 -4t22.5 -3v-41q-51 8 -96 8q-94 0 -126 -33.5t-32 -115.5v-219h227v-41h-227v-1012h-41v1012z"/>
<glyph unicode="ﬄ" horiz-adv-x="1101" d="M949 0v1462h41v-1462h-41zM596 1012h-180v41h180v233q0 59 18.5 97t53.5 54.5t63.5 20.5t71.5 4q16 0 32.5 -1t33 -4t22.5 -3v-41q-51 8 -96 8q-94 0 -126 -33.5t-32 -115.5v-219h227v-41h-227v-1012h-41v1012zM178 1012h-180v41h180v233q0 59 18.5 97t53.5 54.5 t63.5 20.5t71.5 4q16 0 32.5 -1t33 -4t22.5 -3v-41q-51 8 -96 8q-94 0 -126 -33.5t-32 -115.5v-219h227v-41h-227v-1012h-41v1012z"/>
</font>
</defs>
</svg>
